Coordinates
version=1
nRows=20
nColumns=23
inDegrees=yes

Units are S.I. units (second, meters, Newtons, ...)
If the header above contains a line with 'inDegrees', this indicates whether rotational values are in degrees (yes) or radians (no).

endheader
time	pelvis_tilt	pelvis_list	pelvis_rotation	pelvis_tx	pelvis_ty	pelvis_tz	hip_flexion_r	hip_adduction_r	hip_rotation_r	knee_angle_r	knee_angle_r_beta	ankle_angle_r	subtalar_angle_r	mtp_angle_r	hip_flexion_l	hip_adduction_l	hip_rotation_l	knee_angle_l	knee_angle_l_beta	ankle_angle_l	subtalar_angle_l	mtp_angle_l
      0.00000000	     -4.35832133	     -1.47266464	      1.18824829	      2.32851481	      1.04547557	      1.07376407	     28.90972911	      0.36419454	     -9.06109248	     27.44130544	      0.47894113	     -0.62369783	      4.37969492	      0.00000000	     -4.46246230	     -3.19697872	     -0.98843926	     55.16856451	      0.96287309	     -9.57290844	    -11.71904945	      0.00000000
      0.00666667	     -3.70001494	     -1.79814411	      1.25454869	      2.32760880	      1.04124547	      1.07374821	     28.28496066	      0.82774927	     -8.46239682	     29.62135589	      0.51699019	      2.39948712	      3.57616882	      0.00000000	     -3.66947385	     -3.70356755	     -0.53565219	     58.40913229	      1.01943167	     -9.61648475	    -12.59244316	      0.00000000
      0.01333333	     -3.96169399	     -1.80617508	      1.24184062	      2.32632168	      1.03557686	      1.07377338	     28.82628733	      0.99632167	     -7.64690056	     32.11121442	      0.56044642	      5.35733288	      2.87702109	      0.00000000	     -1.81602047	     -3.65371145	      0.17887650	     61.75634401	      1.07785154	     -9.61806317	    -13.42536339	      0.00000000
      0.02000000	     -3.81879511	     -1.98839101	      1.26681443	      2.32513790	      1.03049601	      1.07375557	     28.79351916	      1.38369670	     -6.94195300	     34.30665170	      0.59876403	      8.12284923	      2.09994931	      0.00000000	     -0.46815130	     -3.86784805	      0.75561423	     64.88938662	      1.13253345	     -9.64891451	    -14.16955345	      0.00000000
      0.02666667	     -3.58155911	     -2.27330766	      1.25761368	      2.32388688	      1.02563543	      1.07382573	     28.59081890	      1.93731928	     -6.24681591	     36.33028835	      0.63408315	     10.66874375	      1.29554323	      0.00000000	      0.77020911	     -4.23602541	      1.21879923	     67.89622643	      1.18501270	     -9.66276212	    -14.79186473	      0.00000000
      0.03333333	     -3.26828869	     -2.59388534	      1.23358669	      2.32250408	      1.02105351	      1.07383699	     28.26455847	      2.55209941	     -5.57397754	     38.23726007	      0.66736609	     12.97771423	      0.49381573	      0.00000000	      1.93706845	     -4.61946334	      1.68207426	     70.76925006	      1.23515642	     -9.64051278	    -15.36056307	      0.00000000
      0.04000000	     -3.17480931	     -2.88688728	      1.12493162	      2.32085354	      1.01640553	      1.07394114	     28.15608226	      3.19102788	     -4.81867588	     40.05391836	      0.69907275	     15.03672963	     -0.34525856	      0.00000000	      3.39729982	     -4.96597463	      2.07183966	     73.56971178	      1.28403370	     -9.54693889	    -15.87474356	      0.00000000
      0.04666667	     -3.35783900	     -3.09969816	      0.94944948	      2.31892132	      1.01169684	      1.07407472	     28.31570654	      3.80858249	     -3.90380351	     41.75747768	      0.72880547	     16.62855738	     -1.64129935	      0.00000000	      5.22446567	     -5.25922945	      2.34127666	     76.29774661	      1.33164689	     -9.30220292	    -16.24526151	      0.00000000
      0.05333333	     -2.91843841	     -3.40822997	      0.82051179	      2.31717537	      1.00820890	      1.07405155	     27.64654760	      4.43083536	     -3.31103446	     43.21041735	      0.75416405	     18.34556220	     -2.24856474	      0.00000000	      6.32192115	     -5.64822797	      2.64233281	     78.70842543	      1.37372117	     -9.01043317	    -16.74584800	      0.00000000
      0.06000000	     -3.04909373	     -3.66461200	      0.61314637	      2.31515413	      1.00434694	      1.07414381	     27.55356019	      5.05855342	     -2.54629888	     44.54761235	      0.77750251	     19.79904489	     -3.02854066	      0.00000000	      8.13791888	     -6.01000086	      2.86547439	     81.09595586	      1.41539144	     -8.52026067	    -16.97298123	      0.00000000
      0.06666667	     -3.21480626	     -3.81660869	      0.43454783	      2.31308778	      1.00091528	      1.07419174	     27.37831684	      5.56224200	     -1.78302569	     45.66513714	      0.79700700	     20.87562788	     -4.07063200	      0.00000000	     10.02823389	     -6.25130366	      3.10479216	     83.29710973	      1.45380882	     -7.86089929	    -17.03540686	      0.00000000
      0.07333333	     -2.95233122	     -3.93490700	      0.31465141	      2.31122395	      0.99853940	      1.07398536	     26.59664177	      5.88776726	     -1.32456053	     46.56752798	      0.81275669	     22.15009681	     -4.43327531	      0.00000000	     11.39627080	     -6.41013965	      3.36925265	     85.16936992	      1.48648593	     -7.20571954	    -17.37624024	      0.00000000
      0.08000000	     -3.24394000	     -3.96772639	      0.22225290	      2.30921554	      0.99584574	      1.07379941	     26.35609575	      6.07027338	     -0.94894792	     47.36148565	      0.82661386	     23.18886324	     -4.74549987	      0.00000000	     13.46848930	     -6.51447007	      3.61394852	     86.97674355	      1.51803055	     -6.34589979	    -17.27822080	      0.00000000
      0.08666667	     -3.03688835	     -3.92047754	      0.17014566	      2.30749859	      0.99438583	      1.07345317	     25.39130175	      6.10525285	     -0.68448305	     47.86168862	      0.83534405	     24.23571719	     -4.93310680	      0.00000000	     14.90438275	     -6.46901087	      3.85003116	     88.40332316	      1.54292906	     -5.56535087	    -17.55298458	      0.00000000
      0.09333333	     -3.39940997	     -3.79927716	      0.19876570	      2.30567694	      0.99259362	      1.07307760	     24.99846284	      5.95394892	     -0.63704021	     48.27006558	      0.84247157	     25.16459431	     -4.73139836	      0.00000000	     17.05548798	     -6.38855244	      4.08070396	     89.75458552	      1.56651304	     -4.65270783	    -17.28106700	      0.00000000
      0.10000000	     -3.50925634	     -3.61167494	      0.24420842	      2.30409715	      0.99167806	      1.07260467	     24.17726335	      5.68828708	     -0.66936566	     48.42427204	      0.84516298	     26.03154325	     -4.43141478	      0.00000000	     18.84966971	     -6.20545415	      4.24645685	     90.77530293	      1.58432792	     -3.81145572	    -17.20719712	      0.00000000
      0.10666667	     -3.43474016	     -3.37248979	      0.20434665	      2.30282224	      0.99168056	      1.07225433	     22.96268064	      5.45316094	     -0.50334123	     48.22894815	      0.84175394	     26.62794821	     -4.37863196	      0.00000000	     20.32056517	     -6.01619060	      4.22455533	     91.43563774	      1.59585293	     -3.20594332	    -17.37907119	      0.00000000
      0.11333333	     -3.57440087	     -3.13384079	      0.26090287	      2.30149612	      0.99159401	      1.07174525	     21.98034070	      5.09297256	     -0.62160561	     48.03413154	      0.83835375	     27.30743669	     -4.08491391	      0.00000000	     22.06455066	     -5.81307727	      4.22558216	     91.99158154	      1.60555598	     -2.30752619	    -17.25376570	      0.00000000
      0.12000000	     -3.69203929	     -2.84533693	      0.15466603	      2.30053588	      0.99234533	      1.07146018	     20.77393190	      4.76525737	     -0.53099707	     47.46483472	      0.82841764	     27.61158678	     -3.89825524	      0.00000000	     23.62571219	     -5.65924331	      3.95490936	     92.15903033	      1.60847851	     -1.91055183	    -17.24724925	      0.00000000
      0.12666667	     -3.97993998	     -2.53033511	      0.12849161	      2.29964331	      0.99306490	      1.07098867	     19.76450845	      4.22843231	     -0.85702500	     46.94029008	      0.81926261	     28.11480732	     -2.61264303	      0.00000000	     25.37070541	     -5.45349391	      3.67048204	     92.21928640	      1.60953018	     -0.85791294	    -16.58757116	      0.00000000
